# 3ds Max Wavefront OBJ Exporter v0.97b - (c)2007 guruware
# File Created: 07.12.2016 23:53:01

mtllib FinalBaseMesh_max_green.mtl

#
# object Box002
#

v  1.5461 20.4175 1.2326
v  1.7988 20.3878 -1.4698
v  0.0000 20.7543 -1.3825
v  0.0000 20.7592 1.5065
v  2.2795 9.7020 1.4329
v  1.8297 12.6965 1.6020
v  0.0000 12.6965 1.6020
v  0.0000 9.7020 1.9800
v  2.1617 15.1103 1.7759
v  0.1133 15.2065 1.7759
v  0.0000 9.7020 -1.7361
v  0.0000 12.6965 -1.7406
v  1.8297 12.6965 -1.7406
v  2.4041 9.7020 -1.4605
v  0.0000 15.2065 -2.1233
v  2.1617 15.1103 -2.1233
v  2.8901 -0.3218 2.2162
v  0.9053 -0.3218 2.2162
v  0.9053 -0.0486 -1.8188
v  2.8901 -0.0486 -1.8188
v  2.4554 1.6545 1.4921
v  0.7630 1.6545 1.4921
v  0.7630 1.8092 -1.6607
v  2.4554 1.8092 -1.6607
v  2.6337 5.9248 1.1173
v  0.5044 5.9248 1.1173
v  0.5044 5.9248 -1.8490
v  2.6337 5.9248 -1.8490
v  2.7219 17.0332 0.9605
v  0.0000 17.1354 1.3198
v  0.0000 17.1354 -1.7658
v  2.7161 17.2996 -1.6420
v  4.8080 9.1205 -1.2056
v  5.9212 9.0690 -1.4168
v  5.8774 9.0277 0.6431
v  4.7411 9.0433 0.9333
v  2.9223 13.7827 -1.8781
v  2.9192 13.5694 0.7664
v  4.3160 14.5623 0.3603
v  4.3266 14.5871 -1.6619
v  3.2390 13.1315 0.2897
v  3.1995 13.1315 -1.6912
v  3.2772 12.7623 -1.7922
v  3.3118 12.7692 0.0323
v  4.3772 14.0707 0.1888
v  4.6807 13.5690 0.1484
v  4.6552 13.5703 -1.8059
v  4.3772 14.0707 -1.6902
v  4.3587 11.5139 -1.3494
v  4.5458 10.4950 -1.0324
v  4.5592 10.4961 0.7687
v  4.3578 11.7003 0.1506
v  5.6637 11.9439 0.0175
v  5.8635 10.5888 0.6961
v  5.6647 11.7526 -1.7070
v  5.9954 10.5877 -1.3406
v  1.4498 18.1256 1.2354
v  0.0000 18.3131 1.5913
v  0.0000 18.0284 -1.5023
v  1.1961 18.0959 -1.4670
v  -1.5461 20.4175 1.2326
v  -1.7988 20.3878 -1.4698
v  -2.2795 9.7020 1.4329
v  -1.8297 12.6965 1.6020
v  -2.1617 15.1103 1.7759
v  -2.4041 9.7020 -1.4605
v  -1.8297 12.6965 -1.7406
v  -2.1617 15.1103 -2.1233
v  -2.8901 -0.3218 2.2162
v  -2.8901 -0.0486 -1.8188
v  -0.9053 -0.0486 -1.8188
v  -0.9053 -0.3218 2.2162
v  -0.7630 1.6545 1.4921
v  -2.4554 1.6545 1.4921
v  -0.7630 1.8092 -1.6607
v  -2.4554 1.8092 -1.6607
v  -0.5044 5.9248 1.1173
v  -2.6337 5.9248 1.1173
v  -0.5044 5.9248 -1.8490
v  -2.6337 5.9248 -1.8490
v  -2.7219 17.0332 0.9605
v  -2.7161 17.2996 -1.6420
v  -4.8080 9.1205 -1.2056
v  -4.7411 9.0433 0.9333
v  -5.8774 9.0277 0.6431
v  -5.9212 9.0690 -1.4168
v  -2.9192 13.5694 0.7664
v  -2.9223 13.7827 -1.8781
v  -4.3160 14.5623 0.3603
v  -4.3266 14.5871 -1.6619
v  -3.2390 13.1315 0.2897
v  -3.3118 12.7692 0.0323
v  -3.2772 12.7623 -1.7922
v  -3.1995 13.1315 -1.6912
v  -4.3772 14.0707 0.1888
v  -4.6807 13.5690 0.1484
v  -4.3772 14.0707 -1.6902
v  -4.6552 13.5703 -1.8059
v  -4.3587 11.5139 -1.3494
v  -4.3578 11.7003 0.1506
v  -4.5592 10.4961 0.7687
v  -4.5458 10.4950 -1.0324
v  -5.6637 11.9439 0.0175
v  -5.8635 10.5888 0.6961
v  -5.6647 11.7526 -1.7070
v  -5.9954 10.5877 -1.3406
v  -1.4498 18.1256 1.2354
v  -1.1961 18.0959 -1.4670
# 108 vertices

vn 0.1103 0.9939 -0.0000
vn 0.1033 0.9947 0.0019
vn -0.0000 1.0000 0.0015
vn -0.0000 1.0000 -0.0004
vn 0.2224 0.0988 0.9699
vn -0.0022 -0.2619 0.9651
vn 0.0000 -0.0324 0.9995
vn 0.0000 0.4747 0.8801
vn -0.0070 -0.2925 0.9562
vn -0.0003 -0.2873 0.9578
vn -0.0000 -0.1359 -0.9907
vn 0.0000 -0.2911 -0.9567
vn 0.0804 -0.3768 -0.9228
vn 0.2318 -0.2844 -0.9303
vn 0.0000 -0.5459 -0.8379
vn -0.0056 -0.5541 -0.8324
vn 0.9390 0.3440 0.0023
vn 0.9991 -0.0415 -0.0000
vn 0.9995 -0.0301 0.0068
vn 0.9601 0.2789 0.0190
vn 0.9653 -0.2611 -0.0000
vn 0.0000 -0.9999 -0.0158
vn -0.0000 0.8427 0.5383
vn 0.0000 0.8427 0.5383
vn -0.9896 -0.1438 -0.0018
vn -0.9898 -0.1427 -0.0016
vn -0.9890 -0.1478 -0.0023
vn -0.9890 -0.1481 -0.0023
vn 0.0000 0.3419 -0.9397
vn 0.9097 0.4152 0.0050
vn 0.9091 0.4165 0.0048
vn 0.9139 0.4060 0.0063
vn 0.9141 0.4054 0.0064
vn -0.0000 0.3511 0.9363
vn -0.9927 -0.1205 -0.0007
vn 0.0000 -0.1919 -0.9814
vn 0.9965 -0.0834 -0.0005
vn 0.2247 -0.5051 0.8333
vn -0.9672 -0.2539 0.0000
vn 0.1252 0.2927 -0.9480
vn 0.9892 0.1464 0.0097
vn 0.1130 0.8019 0.5867
vn 0.0372 0.6504 -0.7587
vn -0.0185 -0.9998 -0.0068
vn -0.6961 -0.7179 -0.0056
vn 0.8163 -0.0464 0.5758
vn 0.6382 0.7698 0.0117
vn 0.4313 0.2943 -0.8529
vn -0.9208 -0.3900 0.0084
vn 0.2485 -0.7281 0.6388
vn 0.6586 0.7525 -0.0020
vn -0.2239 0.6205 -0.7516
vn -0.9489 -0.3154 0.0058
vn 0.0120 0.9084 0.4179
vn 0.9175 0.3977 0.0102
vn -0.2288 -0.8161 -0.5307
vn 0.2823 -0.5189 0.8069
vn 0.0334 0.7682 -0.6394
vn 0.3262 0.9453 0.0025
vn 0.4190 0.0549 0.9063
vn -0.0321 0.1066 -0.9938
vn 0.9579 -0.2872 0.0007
vn -0.9555 -0.2950 -0.0073
vn 0.2993 0.1863 0.9358
vn 0.9989 -0.0420 0.0196
vn -0.3895 0.2741 -0.8793
vn -0.6832 -0.7302 -0.0054
vn 0.4758 -0.7869 0.3928
vn 0.9773 0.2118 0.0015
vn 0.2857 -0.3585 -0.8887
vn -0.4907 -0.8712 0.0141
vn 0.0137 0.0004 0.9999
vn 0.6599 0.7513 -0.0111
vn -0.0877 -0.6724 -0.7350
vn -0.1103 0.9939 -0.0000
vn -0.1033 0.9947 0.0019
vn -0.2224 0.0988 0.9699
vn 0.0021 -0.2621 0.9650
vn 0.0063 -0.2927 0.9562
vn -0.2318 -0.2844 -0.9303
vn -0.0804 -0.3768 -0.9228
vn 0.0056 -0.5541 -0.8324
vn -0.9390 0.3440 0.0023
vn -0.9601 0.2789 0.0190
vn -0.9995 -0.0301 0.0068
vn -0.9991 -0.0415 -0.0000
vn -0.9653 -0.2611 -0.0000
vn 0.9896 -0.1438 -0.0018
vn 0.9890 -0.1481 -0.0023
vn 0.9890 -0.1478 -0.0023
vn 0.9898 -0.1427 -0.0016
vn -0.9097 0.4152 0.0050
vn -0.9141 0.4054 0.0064
vn -0.9139 0.4060 0.0063
vn -0.9091 0.4165 0.0048
vn 0.0000 0.3511 0.9363
vn 0.9927 -0.1205 -0.0007
vn -0.9965 -0.0834 -0.0005
vn -0.2247 -0.5051 0.8333
vn 0.9672 -0.2539 0.0000
vn -0.1252 0.2927 -0.9480
vn -0.9892 0.1464 0.0097
vn -0.1087 0.7983 0.5924
vn -0.0372 0.6504 -0.7587
vn 0.0185 -0.9998 -0.0068
vn 0.6961 -0.7179 -0.0056
vn -0.8163 -0.0464 0.5758
vn -0.6382 0.7698 0.0117
vn -0.4313 0.2943 -0.8529
vn 0.9208 -0.3900 0.0084
vn -0.2485 -0.7281 0.6388
vn -0.6586 0.7525 -0.0020
vn 0.2239 0.6205 -0.7516
vn 0.9489 -0.3154 0.0058
vn -0.0120 0.9084 0.4179
vn -0.9175 0.3977 0.0102
vn 0.2288 -0.8161 -0.5307
vn -0.2823 -0.5189 0.8069
vn -0.0334 0.7682 -0.6394
vn -0.3262 0.9453 0.0025
vn -0.4190 0.0549 0.9063
vn 0.0321 0.1066 -0.9938
vn -0.9579 -0.2872 0.0007
vn 0.9555 -0.2950 -0.0073
vn -0.2993 0.1863 0.9358
vn -0.9989 -0.0420 0.0196
vn 0.3895 0.2741 -0.8793
vn 0.6832 -0.7302 -0.0054
vn -0.4758 -0.7869 0.3928
vn -0.9773 0.2118 0.0015
vn -0.2857 -0.3585 -0.8887
vn 0.4907 -0.8712 0.0141
vn -0.0137 0.0004 0.9999
vn -0.6599 0.7513 -0.0111
vn 0.0877 -0.6724 -0.7350
# 135 vertex normals

vt 0.0000 0.0000 0.0000
vt 0.0000 1.0000 0.0000
vt 0.5000 1.0000 0.0000
vt 0.5000 0.0000 0.0000
vt 0.0000 0.5000 0.0000
vt 0.5000 0.5000 0.0000
vt 1.0000 0.5000 0.0000
vt 1.0000 0.0000 0.0000
vt 1.0000 1.0000 0.0000
# 9 texture coords

g Box002
usemtl default
s 4
f 1/1/1 2/2/2 3/3/3 4/4/4 
s 8
f 5/1/5 6/5/6 7/6/7 8/4/8 
f 6/5/6 9/2/9 10/3/10 7/6/7 
s 32
f 11/4/11 12/6/12 13/7/13 14/8/14 
f 12/6/12 15/3/15 16/9/16 13/7/13 
s 64
f 14/1/17 13/5/18 6/7/19 5/8/20 
f 13/5/18 16/2/21 9/9/21 6/7/19 
s 2
f 17/8/22 18/1/22 19/2/22 20/9/22 
s 8
f 17/1/23 21/2/23 22/9/23 18/8/24 
s 16
f 18/1/25 22/2/26 23/9/27 19/8/28 
s 32
f 19/1/29 23/2/29 24/9/29 20/8/29 
s 64
f 20/1/30 24/2/31 21/9/32 17/8/33 
s off
f 21/1/34 25/1/34 26/8/34 22/8/34 
f 22/8/35 26/8/35 27/9/35 23/9/35 
f 23/9/36 27/9/36 28/2/36 24/2/36 
f 24/2/37 28/2/37 25/1/37 21/1/37 
f 25/1/38 5/1/38 8/8/38 26/8/38 
f 26/8/39 8/8/39 11/9/39 27/9/39 
f 27/9/40 11/9/40 14/2/40 28/2/40 
f 28/2/41 14/2/41 5/1/41 25/1/41 
f 9/1/42 29/1/42 30/4/42 10/4/42 
f 15/3/43 31/3/43 32/2/43 16/2/43 
f 33/2/44 34/2/44 35/1/44 36/1/44 
f 16/2/45 37/2/45 38/1/45 9/1/45 
f 29/1/46 9/1/46 38/1/46 39/1/46 
f 32/2/47 29/1/47 39/1/47 40/2/47 
f 32/2/48 40/2/48 37/2/48 16/2/48 
f 41/1/49 42/2/49 43/2/49 44/1/49 
f 45/1/50 41/1/50 44/1/50 46/1/50 
f 45/1/51 46/1/51 47/2/51 48/2/51 
f 48/2/52 47/2/52 43/2/52 42/2/52 
f 49/2/53 50/2/53 51/1/53 52/1/53 
f 53/1/54 52/1/54 51/1/54 54/1/54 
f 55/2/55 53/1/55 54/1/55 56/2/55 
f 55/2/56 56/2/56 50/2/56 49/2/56 
f 29/1/57 57/1/57 58/4/57 30/4/57 
f 31/3/58 59/3/58 60/2/58 32/2/58 
f 32/2/59 60/2/59 57/1/59 29/1/59 
f 57/1/60 1/1/60 4/4/60 58/4/60 
f 59/3/61 3/3/61 2/2/61 60/2/61 
f 60/2/62 2/2/62 1/1/62 57/1/62 
f 36/1/63 51/1/63 50/2/63 33/2/63 
f 54/1/64 51/1/64 36/1/64 35/1/64 
f 56/2/65 54/1/65 35/1/65 34/2/65 
f 33/2/66 50/2/66 56/2/66 34/2/66 
f 41/1/67 38/1/67 37/2/67 42/2/67 
f 39/1/68 38/1/68 41/1/68 45/1/68 
f 40/2/69 39/1/69 45/1/69 48/2/69 
f 42/2/70 37/2/70 40/2/70 48/2/70 
f 44/1/71 43/2/71 49/2/71 52/1/71 
f 46/1/72 44/1/72 52/1/72 53/1/72 
f 55/2/73 47/2/73 46/1/73 53/1/73 
f 49/2/74 43/2/74 47/2/74 55/2/74 
s 4
f 61/1/75 4/4/4 3/3/3 62/2/76 
s 8
f 63/1/77 8/4/8 7/6/7 64/5/78 
f 64/5/78 7/6/7 10/3/10 65/2/79 
s 32
f 11/4/11 66/8/80 67/7/81 12/6/12 
f 12/6/12 67/7/81 68/9/82 15/3/15 
s 64
f 66/1/83 63/8/84 64/7/85 67/5/86 
f 67/5/86 64/7/85 65/9/87 68/2/87 
s 2
f 69/8/22 70/9/22 71/2/22 72/1/22 
s 8
f 69/1/24 72/8/24 73/9/24 74/2/24 
s 16
f 72/1/88 71/8/89 75/9/90 73/2/91 
s 32
f 71/1/29 70/8/29 76/9/29 75/2/29 
s 64
f 70/1/92 69/8/93 74/9/94 76/2/95 
s off
f 74/1/96 73/8/96 77/8/96 78/1/96 
f 73/8/97 75/9/97 79/9/97 77/8/97 
f 75/9/36 76/2/36 80/2/36 79/9/36 
f 76/2/98 74/1/98 78/1/98 80/2/98 
f 78/1/99 77/8/99 8/8/99 63/1/99 
f 77/8/100 79/9/100 11/9/100 8/8/100 
f 79/9/101 80/2/101 66/2/101 11/9/101 
f 80/2/102 78/1/102 63/1/102 66/2/102 
f 65/1/103 10/4/103 30/4/103 81/1/103 
f 15/3/104 68/2/104 82/2/104 31/3/104 
f 83/2/105 84/1/105 85/1/105 86/2/105 
f 68/2/106 65/1/106 87/1/106 88/2/106 
f 81/1/107 89/1/107 87/1/107 65/1/107 
f 82/2/108 90/2/108 89/1/108 81/1/108 
f 82/2/109 68/2/109 88/2/109 90/2/109 
f 91/1/110 92/1/110 93/2/110 94/2/110 
f 95/1/111 96/1/111 92/1/111 91/1/111 
f 95/1/112 97/2/112 98/2/112 96/1/112 
f 97/2/113 94/2/113 93/2/113 98/2/113 
f 99/2/114 100/1/114 101/1/114 102/2/114 
f 103/1/115 104/1/115 101/1/115 100/1/115 
f 105/2/116 106/2/116 104/1/116 103/1/116 
f 105/2/117 99/2/117 102/2/117 106/2/117 
f 81/1/118 30/4/118 58/4/118 107/1/118 
f 31/3/119 82/2/119 108/2/119 59/3/119 
f 82/2/120 81/1/120 107/1/120 108/2/120 
f 107/1/121 58/4/121 4/4/121 61/1/121 
f 59/3/122 108/2/122 62/2/122 3/3/122 
f 108/2/123 107/1/123 61/1/123 62/2/123 
f 84/1/124 83/2/124 102/2/124 101/1/124 
f 104/1/125 85/1/125 84/1/125 101/1/125 
f 106/2/126 86/2/126 85/1/126 104/1/126 
f 83/2/127 86/2/127 106/2/127 102/2/127 
f 91/1/128 94/2/128 88/2/128 87/1/128 
f 89/1/129 95/1/129 91/1/129 87/1/129 
f 90/2/130 97/2/130 95/1/130 89/1/130 
f 94/2/131 97/2/131 90/2/131 88/2/131 
f 92/1/132 100/1/132 99/2/132 93/2/132 
f 96/1/133 103/1/133 100/1/133 92/1/133 
f 105/2/134 103/1/134 96/1/134 98/2/134 
f 99/2/135 105/2/135 98/2/135 93/2/135 
# 106 polygons

