# 3ds Max Wavefront OBJ Exporter v0.97b - (c)2007 guruware
# File Created: 09.12.2016 01:32:02

mtllib FinalBaseMesh_max_green2.mtl

#
# object Box002
#

v  -1.5461 20.4175 1.2326
v  0.0000 20.7592 1.5065
v  0.0000 20.7543 -1.3825
v  -1.7988 20.3878 -1.4698
v  -2.2795 9.7020 1.4329
v  0.0000 9.7020 1.9800
v  0.0000 12.6965 1.6020
v  -1.8297 12.6965 1.6020
v  0.0000 15.2017 1.7759
v  -2.1617 15.1103 1.7759
v  0.0000 9.7020 -1.7361
v  -2.4041 9.7020 -1.4605
v  -1.8297 12.6965 -1.7406
v  0.0000 12.6965 -1.7406
v  -2.1617 15.1103 -2.1233
v  0.0000 15.2065 -2.1233
v  -2.8901 -0.3218 2.2162
v  -2.8901 -0.0486 -1.8188
v  -0.9053 -0.0486 -1.8188
v  -0.9053 -0.3218 2.2162
v  -0.7630 1.6545 1.4921
v  -2.4554 1.6545 1.4921
v  -0.7630 1.8092 -1.6607
v  -2.4554 1.8092 -1.6607
v  -0.5044 5.9248 1.1173
v  -2.6337 5.9248 1.1173
v  -0.5044 5.9248 -1.8490
v  -2.6337 5.9248 -1.8490
v  0.0000 17.1354 1.3198
v  -2.7219 17.0332 0.9605
v  -2.7161 17.2996 -1.6420
v  0.0000 17.1354 -1.7658
v  -4.8080 9.1205 -1.2056
v  -4.7411 9.0433 0.9333
v  -5.8774 9.0277 0.6431
v  -5.9212 9.0690 -1.4168
v  -2.9192 13.5694 0.7664
v  -2.9223 13.7827 -1.8781
v  -4.3160 14.5623 0.3603
v  -4.3266 14.5871 -1.6619
v  -3.2390 13.1315 0.2897
v  -3.3118 12.7692 0.0323
v  -3.2772 12.7623 -1.7922
v  -3.1995 13.1315 -1.6912
v  -4.3772 14.0707 0.1888
v  -4.6807 13.5690 0.1484
v  -4.3772 14.0707 -1.6902
v  -4.6552 13.5703 -1.8059
v  -4.3587 11.5139 -1.3494
v  -4.3578 11.7003 0.1506
v  -4.5592 10.4961 0.7687
v  -4.5458 10.4950 -1.0324
v  -5.6637 11.9439 0.0175
v  -5.8635 10.5888 0.6961
v  -5.6647 11.7526 -1.7070
v  -5.9954 10.5877 -1.3406
v  0.0000 18.3131 1.5913
v  -1.4498 18.1256 1.2354
v  -1.1961 18.0959 -1.4670
v  0.0000 18.0284 -1.5023
v  -4.5822 10.3118 0.7896
v  -4.5807 10.3118 -1.0555
v  -5.8659 10.3118 0.6867
v  -5.9820 10.3118 -1.3544
v  1.5461 20.4175 1.2326
v  1.7988 20.3878 -1.4698
v  2.2795 9.7020 1.4329
v  1.8297 12.6965 1.6020
v  2.1617 15.1103 1.7759
v  1.8297 12.6965 -1.7406
v  2.4041 9.7020 -1.4605
v  2.1617 15.1103 -2.1233
v  2.8901 -0.3218 2.2162
v  0.9053 -0.3218 2.2162
v  0.9053 -0.0486 -1.8188
v  2.8901 -0.0486 -1.8188
v  2.4554 1.6545 1.4921
v  0.7630 1.6545 1.4921
v  0.7630 1.8092 -1.6607
v  2.4554 1.8092 -1.6607
v  2.6337 5.9248 1.1173
v  0.5044 5.9248 1.1173
v  0.5044 5.9248 -1.8490
v  2.6337 5.9248 -1.8490
v  2.7219 17.0332 0.9605
v  2.7161 17.2996 -1.6420
v  4.8080 9.1205 -1.2056
v  5.9212 9.0690 -1.4168
v  5.8774 9.0277 0.6431
v  4.7411 9.0433 0.9333
v  2.9223 13.7827 -1.8781
v  2.9192 13.5694 0.7664
v  4.3160 14.5623 0.3603
v  4.3266 14.5871 -1.6619
v  3.2390 13.1315 0.2897
v  3.1995 13.1315 -1.6912
v  3.2772 12.7623 -1.7922
v  3.3118 12.7692 0.0323
v  4.3772 14.0707 0.1888
v  4.6807 13.5690 0.1484
v  4.6552 13.5703 -1.8059
v  4.3772 14.0707 -1.6902
v  4.3587 11.5139 -1.3494
v  4.5458 10.4950 -1.0324
v  4.5592 10.4961 0.7687
v  4.3578 11.7003 0.1506
v  5.6637 11.9439 0.0175
v  5.8635 10.5888 0.6961
v  5.6647 11.7526 -1.7070
v  5.9954 10.5877 -1.3406
v  1.4498 18.1256 1.2354
v  1.1961 18.0959 -1.4670
v  4.5822 10.3118 0.7896
v  4.5807 10.3118 -1.0555
v  5.8659 10.3118 0.6867
v  5.9820 10.3118 -1.3544
# 116 vertices

vn -0.1103 0.9939 -0.0000
vn 0.0000 1.0000 -0.0004
vn -0.0000 1.0000 0.0015
vn -0.1033 0.9947 0.0019
vn -0.2224 0.0988 0.9699
vn 0.0000 0.4747 0.8801
vn 0.0000 -0.0327 0.9995
vn 0.0020 -0.2621 0.9650
vn -0.0000 -0.2877 0.9577
vn 0.0063 -0.2927 0.9562
vn 0.0000 -0.1359 -0.9907
vn -0.2318 -0.2844 -0.9303
vn -0.0804 -0.3768 -0.9228
vn 0.0000 -0.2911 -0.9567
vn 0.0056 -0.5541 -0.8324
vn 0.0000 -0.5459 -0.8379
vn -0.9390 0.3440 0.0023
vn -0.9601 0.2789 0.0190
vn -0.9995 -0.0301 0.0068
vn -0.9991 -0.0415 -0.0000
vn -0.9653 -0.2611 -0.0000
vn 0.0000 -0.9999 -0.0158
vn 0.0000 0.8427 0.5383
vn 0.9896 -0.1438 -0.0018
vn 0.9890 -0.1481 -0.0023
vn 0.9890 -0.1478 -0.0023
vn 0.9898 -0.1427 -0.0016
vn 0.0000 0.3419 -0.9397
vn -0.9097 0.4152 0.0050
vn -0.9141 0.4054 0.0064
vn -0.9139 0.4060 0.0063
vn -0.9091 0.4165 0.0048
vn 0.0000 0.3511 0.9363
vn 0.9927 -0.1205 -0.0007
vn 0.0000 -0.1919 -0.9814
vn -0.9965 -0.0834 -0.0005
vn -0.2247 -0.5051 0.8333
vn 0.9672 -0.2539 0.0000
vn -0.1252 0.2927 -0.9480
vn -0.9892 0.1464 0.0097
vn -0.1105 0.7998 0.5901
vn -0.0372 0.6504 -0.7587
vn 0.0185 -0.9998 -0.0068
vn 0.6961 -0.7179 -0.0056
vn -0.8163 -0.0464 0.5758
vn -0.6382 0.7698 0.0117
vn -0.4313 0.2943 -0.8529
vn 0.9208 -0.3900 0.0084
vn -0.2485 -0.7281 0.6388
vn -0.6586 0.7525 -0.0020
vn 0.2239 0.6205 -0.7516
vn 0.9489 -0.3154 0.0058
vn -0.0120 0.9084 0.4179
vn -0.9175 0.3977 0.0102
vn 0.2288 -0.8161 -0.5307
vn -0.2823 -0.5189 0.8069
vn -0.0334 0.7682 -0.6394
vn -0.3262 0.9453 0.0025
vn -0.4190 0.0549 0.9063
vn 0.0321 0.1066 -0.9938
vn -0.9579 -0.2872 0.0007
vn 0.9550 -0.2965 0.0018
vn -0.1425 0.1199 0.9825
vn -0.9986 -0.0441 0.0279
vn 0.4089 0.2628 -0.8740
vn 0.6832 -0.7302 -0.0054
vn -0.4758 -0.7869 0.3928
vn -0.9773 0.2118 0.0015
vn -0.2857 -0.3585 -0.8887
vn 0.4907 -0.8712 0.0141
vn -0.0137 0.0004 0.9999
vn -0.6599 0.7513 -0.0111
vn 0.0877 -0.6724 -0.7350
vn 0.9555 -0.2948 -0.0086
vn -0.3268 0.1977 0.9242
vn -0.9990 -0.0415 0.0178
vn 0.3853 0.2765 -0.8804
vn 0.1103 0.9939 -0.0000
vn 0.1033 0.9947 0.0019
vn 0.2224 0.0988 0.9699
vn -0.0020 -0.2621 0.9650
vn -0.0063 -0.2927 0.9562
vn 0.0804 -0.3768 -0.9228
vn 0.2318 -0.2844 -0.9303
vn -0.0056 -0.5541 -0.8324
vn 0.9390 0.3440 0.0023
vn 0.9991 -0.0415 -0.0000
vn 0.9995 -0.0301 0.0068
vn 0.9601 0.2789 0.0190
vn 0.9653 -0.2611 -0.0000
vn -0.0000 0.8427 0.5383
vn -0.9896 -0.1438 -0.0018
vn -0.9898 -0.1427 -0.0016
vn -0.9890 -0.1478 -0.0023
vn -0.9890 -0.1481 -0.0023
vn 0.9097 0.4152 0.0050
vn 0.9091 0.4165 0.0048
vn 0.9139 0.4060 0.0063
vn 0.9141 0.4054 0.0064
vn -0.0000 0.3511 0.9363
vn -0.9927 -0.1205 -0.0007
vn 0.9965 -0.0834 -0.0005
vn 0.2247 -0.5051 0.8333
vn -0.9672 -0.2539 0.0000
vn 0.1252 0.2927 -0.9480
vn 0.9892 0.1464 0.0097
vn 0.1105 0.7998 0.5901
vn 0.0372 0.6504 -0.7587
vn -0.0185 -0.9998 -0.0068
vn -0.6961 -0.7179 -0.0056
vn 0.8163 -0.0464 0.5758
vn 0.6382 0.7698 0.0117
vn 0.4313 0.2943 -0.8529
vn -0.9208 -0.3900 0.0084
vn 0.2485 -0.7281 0.6388
vn 0.6586 0.7525 -0.0020
vn -0.2239 0.6205 -0.7516
vn -0.9489 -0.3154 0.0058
vn 0.0120 0.9084 0.4179
vn 0.9175 0.3977 0.0102
vn -0.2288 -0.8161 -0.5307
vn 0.2823 -0.5189 0.8069
vn 0.0334 0.7682 -0.6394
vn 0.3262 0.9453 0.0025
vn 0.4190 0.0549 0.9063
vn -0.0321 0.1066 -0.9938
vn 0.9579 -0.2872 0.0007
vn -0.9550 -0.2965 0.0018
vn 0.1425 0.1199 0.9825
vn 0.9986 -0.0441 0.0279
vn -0.4089 0.2628 -0.8740
vn -0.6832 -0.7302 -0.0054
vn 0.4758 -0.7869 0.3928
vn 0.9773 0.2118 0.0015
vn 0.2857 -0.3585 -0.8887
vn -0.4907 -0.8712 0.0141
vn 0.0137 0.0004 0.9999
vn 0.6599 0.7513 -0.0111
vn -0.0877 -0.6724 -0.7350
vn -0.9555 -0.2948 -0.0086
vn 0.3268 0.1977 0.9242
vn 0.9990 -0.0415 0.0178
vn -0.3853 0.2765 -0.8804
# 143 vertex normals

vt 0.0000 0.0000 0.0000
vt 0.5000 0.0000 0.0000
vt 0.5000 1.0000 0.0000
vt 0.0000 1.0000 0.0000
vt 0.5000 0.5000 0.0000
vt 0.0000 0.5000 0.0000
vt 0.4751 1.0000 0.0000
vt 1.0000 0.0000 0.0000
vt 1.0000 0.5000 0.0000
vt 1.0000 1.0000 0.0000
vt 0.4751 0.0000 0.0000
# 11 texture coords

g Box002
usemtl default
s 4
f 1/1/1 2/2/2 3/3/3 4/4/4 
s 8
f 5/1/5 6/2/6 7/5/7 8/6/8 
f 8/6/8 7/5/7 9/7/9 10/4/10 
s 32
f 11/2/11 12/8/12 13/9/13 14/5/14 
f 14/5/14 13/9/13 15/10/15 16/3/16 
s 64
f 12/1/17 5/8/18 8/9/19 13/6/20 
f 13/6/20 8/9/19 10/10/21 15/4/21 
s 2
f 17/8/22 18/10/22 19/4/22 20/1/22 
s 8
f 17/1/23 20/8/23 21/10/23 22/4/23 
s 16
f 20/1/24 19/8/25 23/10/26 21/4/27 
s 32
f 19/1/28 18/8/28 24/10/28 23/4/28 
s 64
f 18/1/29 17/8/30 22/10/31 24/4/32 
s off
f 22/1/33 21/8/33 25/8/33 26/1/33 
f 21/8/34 23/10/34 27/10/34 25/8/34 
f 23/10/35 24/4/35 28/4/35 27/10/35 
f 24/4/36 22/1/36 26/1/36 28/4/36 
f 26/1/37 25/8/37 6/8/37 5/1/37 
f 25/8/38 27/10/38 11/10/38 6/8/38 
f 27/10/39 28/4/39 12/4/39 11/10/39 
f 28/4/40 26/1/40 5/1/40 12/4/40 
f 10/1/41 9/11/41 29/2/41 30/1/41 
f 16/3/42 15/4/42 31/4/42 32/3/42 
f 33/4/43 34/1/43 35/1/43 36/4/43 
f 15/4/44 10/1/44 37/1/44 38/4/44 
f 30/1/45 39/1/45 37/1/45 10/1/45 
f 31/4/46 40/4/46 39/1/46 30/1/46 
f 31/4/47 15/4/47 38/4/47 40/4/47 
f 41/1/48 42/1/48 43/4/48 44/4/48 
f 45/1/49 46/1/49 42/1/49 41/1/49 
f 45/1/50 47/4/50 48/4/50 46/1/50 
f 47/4/51 44/4/51 43/4/51 48/4/51 
f 49/4/52 50/1/52 51/1/52 52/4/52 
f 53/1/53 54/1/53 51/1/53 50/1/53 
f 55/4/54 56/4/54 54/1/54 53/1/54 
f 55/4/55 49/4/55 52/4/55 56/4/55 
f 30/1/56 29/2/56 57/2/56 58/1/56 
f 32/3/57 31/4/57 59/4/57 60/3/57 
f 31/4/58 30/1/58 58/1/58 59/4/58 
f 58/1/59 57/2/59 2/2/59 1/1/59 
f 60/3/60 59/4/60 4/4/60 3/3/60 
f 59/4/61 58/1/61 1/1/61 4/4/61 
f 61/1/62 62/4/62 52/4/62 51/1/62 
f 54/1/63 63/1/63 61/1/63 51/1/63 
f 56/4/64 64/4/64 63/1/64 54/1/64 
f 62/4/65 64/4/65 56/4/65 52/4/65 
f 41/1/66 44/4/66 38/4/66 37/1/66 
f 39/1/67 45/1/67 41/1/67 37/1/67 
f 40/4/68 47/4/68 45/1/68 39/1/68 
f 44/4/69 47/4/69 40/4/69 38/4/69 
f 42/1/70 50/1/70 49/4/70 43/4/70 
f 46/1/71 53/1/71 50/1/71 42/1/71 
f 55/4/72 53/1/72 46/1/72 48/4/72 
f 49/4/73 55/4/73 48/4/73 43/4/73 
f 34/1/74 33/4/74 62/4/74 61/1/74 
f 63/1/75 35/1/75 34/1/75 61/1/75 
f 64/4/76 36/4/76 35/1/76 63/1/76 
f 33/4/77 36/4/77 64/4/77 62/4/77 
s 4
f 65/1/78 66/4/79 3/3/3 2/2/2 
s 8
f 67/1/80 68/6/81 7/5/7 6/2/6 
f 68/6/81 69/4/82 9/7/9 7/5/7 
s 32
f 11/2/11 14/5/14 70/9/83 71/8/84 
f 14/5/14 16/3/16 72/10/85 70/9/83 
s 64
f 71/1/86 70/6/87 68/9/88 67/8/89 
f 70/6/87 72/4/90 69/10/90 68/9/88 
s 2
f 73/8/22 74/1/22 75/4/22 76/10/22 
s 8
f 73/1/91 77/4/91 78/10/91 74/8/23 
s 16
f 74/1/92 78/4/93 79/10/94 75/8/95 
s 32
f 75/1/28 79/4/28 80/10/28 76/8/28 
s 64
f 76/1/96 80/4/97 77/10/98 73/8/99 
s off
f 77/1/100 81/1/100 82/8/100 78/8/100 
f 78/8/101 82/8/101 83/10/101 79/10/101 
f 79/10/35 83/10/35 84/4/35 80/4/35 
f 80/4/102 84/4/102 81/1/102 77/1/102 
f 81/1/103 67/1/103 6/8/103 82/8/103 
f 82/8/104 6/8/104 11/10/104 83/10/104 
f 83/10/105 11/10/105 71/4/105 84/4/105 
f 84/4/106 71/4/106 67/1/106 81/1/106 
f 69/1/107 85/1/107 29/2/107 9/11/107 
f 16/3/108 32/3/108 86/4/108 72/4/108 
f 87/4/109 88/4/109 89/1/109 90/1/109 
f 72/4/110 91/4/110 92/1/110 69/1/110 
f 85/1/111 69/1/111 92/1/111 93/1/111 
f 86/4/112 85/1/112 93/1/112 94/4/112 
f 86/4/113 94/4/113 91/4/113 72/4/113 
f 95/1/114 96/4/114 97/4/114 98/1/114 
f 99/1/115 95/1/115 98/1/115 100/1/115 
f 99/1/116 100/1/116 101/4/116 102/4/116 
f 102/4/117 101/4/117 97/4/117 96/4/117 
f 103/4/118 104/4/118 105/1/118 106/1/118 
f 107/1/119 106/1/119 105/1/119 108/1/119 
f 109/4/120 107/1/120 108/1/120 110/4/120 
f 109/4/121 110/4/121 104/4/121 103/4/121 
f 85/1/122 111/1/122 57/2/122 29/2/122 
f 32/3/123 60/3/123 112/4/123 86/4/123 
f 86/4/124 112/4/124 111/1/124 85/1/124 
f 111/1/125 65/1/125 2/2/125 57/2/125 
f 60/3/126 3/3/126 66/4/126 112/4/126 
f 112/4/127 66/4/127 65/1/127 111/1/127 
f 113/1/128 105/1/128 104/4/128 114/4/128 
f 108/1/129 105/1/129 113/1/129 115/1/129 
f 110/4/130 108/1/130 115/1/130 116/4/130 
f 114/4/131 104/4/131 110/4/131 116/4/131 
f 95/1/132 92/1/132 91/4/132 96/4/132 
f 93/1/133 92/1/133 95/1/133 99/1/133 
f 94/4/134 93/1/134 99/1/134 102/4/134 
f 96/4/135 91/4/135 94/4/135 102/4/135 
f 98/1/136 97/4/136 103/4/136 106/1/136 
f 100/1/137 98/1/137 106/1/137 107/1/137 
f 109/4/138 101/4/138 100/1/138 107/1/138 
f 103/4/139 97/4/139 101/4/139 109/4/139 
f 90/1/140 113/1/140 114/4/140 87/4/140 
f 115/1/141 113/1/141 90/1/141 89/1/141 
f 116/4/142 115/1/142 89/1/142 88/4/142 
f 87/4/143 114/4/143 116/4/143 88/4/143 
# 114 polygons

